<svg width="330" height="37" viewBox="0 0 330 37" fill="none" xmlns="http://www.w3.org/2000/svg">
<path d="M0.8 0.899999H7.15C7.81667 0.899999 8.36667 1.16667 8.8 1.7L26.8 25.1V1.5C26.8 1.33333 26.85 1.2 26.95 1.1C27.0833 0.966666 27.2333 0.899999 27.4 0.899999H32.55C32.7167 0.899999 32.85 0.966666 32.95 1.1C33.0833 1.2 33.15 1.33333 33.15 1.5V35.3C33.15 35.7 32.95 35.9 32.55 35.9H27.8C27.1333 35.9 26.5833 35.6333 26.15 35.1L0.45 1.6C0.316667 1.46667 0.3 1.31667 0.4 1.15C0.5 0.983332 0.633333 0.899999 0.8 0.899999ZM39.9188 35.3L65.6188 1.8C66.0521 1.26666 66.6021 0.999998 67.2688 0.999998H72.0188C72.4188 0.999998 72.6188 1.2 72.6188 1.6V35.4C72.6188 35.8 72.4188 36 72.0188 36H67.2688C66.6021 36 66.0521 35.7333 65.6188 35.2L56.9688 23.9L48.2688 35.2C47.8354 35.7333 47.2854 36 46.6188 36H40.2688C40.1021 36 39.9688 35.9333 39.8688 35.8C39.7688 35.6333 39.7854 35.4667 39.9188 35.3ZM61.1188 18.5L66.2688 25.2V11.8L61.1188 18.5ZM83.1875 0.999998H88.3375C88.7708 0.999998 88.9875 1.2 88.9875 1.6V29.65H102.988C103.188 29.65 103.321 29.7333 103.388 29.9C103.488 30.0667 103.488 30.2167 103.388 30.35L99.6375 35.2C99.2042 35.7333 98.6708 36 98.0375 36H83.1875C83.0208 36 82.8708 35.95 82.7375 35.85C82.6375 35.7167 82.5875 35.5667 82.5875 35.4V1.6C82.5875 1.43333 82.6375 1.3 82.7375 1.2C82.8708 1.06666 83.0208 0.999998 83.1875 0.999998ZM108.693 18.35C108.693 15.7833 109.16 13.4 110.093 11.2C111.06 8.96667 112.343 7.05 113.943 5.45C115.577 3.81667 117.493 2.55 119.693 1.65C121.893 0.716665 124.26 0.266665 126.793 0.299998C129.327 0.333331 131.693 0.833331 133.893 1.8C136.093 2.76667 137.993 4.08333 139.593 5.75C141.227 7.41667 142.51 9.36667 143.443 11.6C144.377 13.8 144.827 16.15 144.793 18.65C144.76 21.1833 144.26 23.55 143.293 25.75C142.327 27.95 141.01 29.8667 139.343 31.5C137.71 33.1333 135.793 34.4167 133.593 35.35C131.393 36.25 129.027 36.7 126.493 36.7C123.993 36.7 121.643 36.2333 119.443 35.3C117.277 34.3333 115.393 33.0333 113.793 31.4C112.193 29.7333 110.943 27.7833 110.043 25.55C109.143 23.3167 108.693 20.9167 108.693 18.35ZM115.093 18.6C115.093 20.2333 115.41 21.7833 116.043 23.25C116.677 24.7167 117.527 26 118.593 27.1C119.66 28.2 120.893 29.0667 122.293 29.7C123.693 30.3333 125.193 30.65 126.793 30.65C128.36 30.6167 129.843 30.2667 131.243 29.6C132.643 28.9333 133.86 28.05 134.893 26.95C135.96 25.8167 136.793 24.5167 137.393 23.05C137.993 21.55 138.277 19.9833 138.243 18.35C138.243 16.7167 137.927 15.1667 137.293 13.7C136.66 12.2333 135.81 10.9667 134.743 9.9C133.677 8.8 132.427 7.93333 130.993 7.3C129.593 6.66666 128.11 6.35 126.543 6.35C124.977 6.38333 123.493 6.73333 122.093 7.4C120.693 8.03333 119.477 8.91666 118.443 10.05C117.41 11.15 116.593 12.4333 115.993 13.9C115.393 15.3667 115.093 16.9333 115.093 18.6ZM323.188 29.25H328.638C329.072 29.25 329.288 29.4667 329.288 29.9V35.4C329.288 35.8333 329.072 36.05 328.638 36.05H323.188C322.755 36.05 322.538 35.8333 322.538 35.4V29.9C322.538 29.4667 322.755 29.25 323.188 29.25Z" fill="white"/>
<path d="M153.273 35.3V1.5C153.273 1.33333 153.323 1.2 153.423 1.1C153.556 0.966666 153.706 0.899999 153.873 0.899999H180.273C180.44 0.899999 180.573 0.966666 180.673 1.1C180.806 1.2 180.873 1.33333 180.873 1.5V8.85C180.873 9.31666 180.723 9.73333 180.423 10.1L173.123 19.65C172.69 20.1833 172.14 20.45 171.473 20.45H165.123C164.923 20.45 164.773 20.3833 164.673 20.25C164.606 20.0833 164.64 19.9167 164.773 19.75L174.373 7.25H159.673V35.3C159.673 35.7 159.456 35.9 159.023 35.9H153.873C153.706 35.9 153.556 35.85 153.423 35.75C153.323 35.6167 153.273 35.4667 153.273 35.3ZM189.436 0.999998H194.586C195.019 0.999998 195.236 1.2 195.236 1.6V29.65H209.236C209.436 29.65 209.569 29.7333 209.636 29.9C209.736 30.0667 209.736 30.2167 209.636 30.35L205.886 35.2C205.452 35.7333 204.919 36 204.286 36H189.436C189.269 36 189.119 35.95 188.986 35.85C188.886 35.7167 188.836 35.5667 188.836 35.4V1.6C188.836 1.43333 188.886 1.3 188.986 1.2C189.119 1.06666 189.269 0.999998 189.436 0.999998ZM216.341 35.4V1.6C216.341 1.43333 216.391 1.3 216.491 1.2C216.625 1.06666 216.775 0.999998 216.941 0.999998H221.691C222.358 0.999998 222.908 1.26666 223.341 1.8L249.091 35.3C249.191 35.4667 249.191 35.6333 249.091 35.8C249.025 35.9333 248.891 36 248.691 36H242.341C241.675 36 241.125 35.7333 240.691 35.2L232.041 23.9L223.341 35.2C222.908 35.7333 222.358 36 221.691 36H216.941C216.775 36 216.625 35.95 216.491 35.85C216.391 35.7167 216.341 35.5667 216.341 35.4ZM222.741 11.8V25.2L227.891 18.5L222.741 11.8ZM251.822 18.35C251.822 15.7833 252.289 13.4 253.222 11.2C254.189 9 255.472 7.08333 257.072 5.45C258.706 3.81667 260.622 2.55 262.822 1.65C265.022 0.716665 267.389 0.266665 269.922 0.299998C272.622 0.333331 275.106 0.88333 277.372 1.95C279.672 3.01666 281.656 4.48333 283.322 6.35C283.422 6.48333 283.456 6.63333 283.422 6.8C283.422 6.96666 283.356 7.1 283.222 7.2L279.272 10.55C279.139 10.65 278.989 10.7 278.822 10.7C278.656 10.6667 278.522 10.5833 278.422 10.45C277.322 9.18333 276.022 8.18333 274.522 7.45C273.022 6.68333 271.406 6.31666 269.672 6.35C268.106 6.38333 266.622 6.73333 265.222 7.4C263.822 8.03333 262.606 8.91666 261.572 10.05C260.539 11.15 259.722 12.4333 259.122 13.9C258.522 15.3667 258.222 16.9333 258.222 18.6C258.222 20.2667 258.539 21.8333 259.172 23.3C259.806 24.7667 260.656 26.05 261.722 27.15C262.789 28.25 264.022 29.1167 265.422 29.75C266.822 30.35 268.322 30.65 269.922 30.65C271.589 30.6167 273.156 30.2333 274.622 29.5C276.089 28.7667 277.356 27.7667 278.422 26.5C278.522 26.3667 278.656 26.3 278.822 26.3C278.989 26.2667 279.139 26.3167 279.272 26.45L283.222 29.8C283.356 29.9 283.422 30.0333 283.422 30.2C283.456 30.3667 283.422 30.5167 283.322 30.65C281.622 32.55 279.606 34.05 277.272 35.15C274.939 36.2167 272.389 36.7333 269.622 36.7C267.122 36.7 264.772 36.2333 262.572 35.3C260.406 34.3333 258.522 33.0333 256.922 31.4C255.322 29.7333 254.072 27.7833 253.172 25.55C252.272 23.3167 251.822 20.9167 251.822 18.35ZM291.812 1.6C291.812 1.43333 291.862 1.3 291.962 1.2C292.095 1.06666 292.245 0.999998 292.412 0.999998H314.012C314.412 0.999998 314.612 1.2 314.612 1.6V6.75C314.612 7.15 314.412 7.35 314.012 7.35H298.212V15.35H310.712C311.112 15.35 311.312 15.55 311.312 15.95V21.05C311.312 21.4833 311.112 21.7 310.712 21.7H298.212V29.65H315.562C315.762 29.65 315.895 29.7333 315.962 29.9C316.062 30.0667 316.045 30.2167 315.912 30.35L312.212 35.2C311.779 35.7333 311.229 36 310.562 36H292.412C292.245 36 292.095 35.95 291.962 35.85C291.862 35.7167 291.812 35.5667 291.812 35.4V1.6Z" fill="#FF4654"/>
</svg>
